<?xml version="1.0" encoding="UTF-8" standalone="no"?>
<svg
   data-name="Layer 1"
   width="930.25869"
   height="652"
   viewBox="0 0 930.25869 652"
   version="1.1"
   id="svg45"
   sodipodi:docname="undraw_flowers_vx06.svg"
   inkscape:version="1.3.2 (091e20e, 2023-11-25, custom)"
   xmlns:inkscape="http://www.inkscape.org/namespaces/inkscape"
   xmlns:sodipodi="http://sodipodi.sourceforge.net/DTD/sodipodi-0.dtd"
   xmlns="http://www.w3.org/2000/svg"
   xmlns:svg="http://www.w3.org/2000/svg">
  <sodipodi:namedview
     id="namedview45"
     pagecolor="#ffffff"
     bordercolor="#000000"
     borderopacity="0.25"
     inkscape:showpageshadow="2"
     inkscape:pageopacity="0.0"
     inkscape:pagecheckerboard="0"
     inkscape:deskcolor="#d1d1d1"
     showgrid="false"
     inkscape:zoom="0.62960123"
     inkscape:cx="19.853837"
     inkscape:cy="126.2704"
     inkscape:window-width="1920"
     inkscape:window-height="1017"
     inkscape:window-x="-8"
     inkscape:window-y="-8"
     inkscape:window-maximized="1"
     inkscape:current-layer="svg45" />
  <defs
     id="defs3">
    <linearGradient
       id="a876bd90-f878-4b77-89d3-57d6c6545783-444"
       x1="795.53026"
       y1="278.26925"
       x2="795.53026"
       y2="266.10985"
       gradientTransform="translate(-281.35543,-128.76492)"
       gradientUnits="userSpaceOnUse">
      <stop
         offset="0"
         stop-color="gray"
         stop-opacity="0.25"
         id="stop1" />
      <stop
         offset="0.53514"
         stop-color="gray"
         stop-opacity="0.12"
         id="stop2" />
      <stop
         offset="1"
         stop-color="gray"
         stop-opacity="0.1"
         id="stop3" />
    </linearGradient>
  </defs>
  <title
     id="title3">
    flowers
  </title>
  <g
     id="g45"
     transform="matrix(1.2838528,0,0,1.2838528,-89.747286,-44.398918)">
    <path
       d="m 509.29833,499.79165 c 95.60775,-48.36148 133.90842,-165.07159 85.54694,-260.67934 l -346.22629,175.1324 c 48.36148,95.60776 165.07159,133.90842 260.67935,85.54694 z"
       fill="#3f3d56"
       id="path19" />
    <path
       d="m 516.31114,138.73821 c 0.64438,-0.4376 1.267,-0.90492 1.87258,-1.39328 a 28.71667,28.71667 0 0 1 -5.97125,10.20038 v 0 c -0.62606,0.68951 -1.29436,1.33483 -1.98093,1.959 -0.0136,-0.1581 -0.0288,-0.31625 -0.0371,-0.47421 -0.08,-1.52987 0.0315,-3.13979 0.0525,-4.71533 a 20.11536,20.11536 0 0 0 6.06423,-5.57656 z"
       fill="url(#a876bd90-f878-4b77-89d3-57d6c6545783-444)"
       id="path20"
       style="fill:url(#a876bd90-f878-4b77-89d3-57d6c6545783-444)" />
    <path
       d="m 525.69325,82.945889 a 17.64909,17.64909 0 1 0 -32.53453,-5.80218 28.33744,28.33744 0 0 0 -16.1198,26.959921 28.3726,28.3726 0 1 0 52.14589,15.48492 c 0,-0.45238 -0.0132,-0.90162 -0.0341,-1.34881 a 28.36938,28.36938 0 0 0 -3.45743,-35.293851 z"
       fill="#2f2e41"
       id="path21" />
    <g
       opacity="0.1"
       id="g24"
       transform="translate(-314.48477,-4.7649208)">
      <path
         d="m 942.27984,201.42853 c 0.079,-0.0387 0.15488,-0.0831 0.23431,-0.12113 -0.0565,-0.30556 -0.0952,-0.61625 -0.13569,-0.92639 -0.009,0.0648 -0.0205,0.12839 -0.0284,0.19345 -0.0345,0.28608 -0.0497,0.56972 -0.0702,0.85407 z"
         transform="translate(-134.87066,-124)"
         id="path22" />
      <path
         d="m 982.90252,230.31443 a 28.2502,28.2502 0 0 1 -4.39641,12.089 c 0.0209,0.44719 0.0341,0.89643 0.0341,1.34881 a 28.37037,28.37037 0 0 1 -56.64874,2.2869 c -0.0619,0.76388 -0.0998,1.53445 -0.0998,2.31433 a 28.374265,28.374265 0 1 0 56.74853,0 c 0,-0.45238 -0.0132,-0.90162 -0.0341,-1.34881 a 28.28662,28.28662 0 0 0 4.49953,-17.81526 c -0.0304,0.37454 -0.0576,0.74866 -0.10312,1.12503 z"
         transform="translate(-134.87066,-124)"
         id="path23" />
      <path
         d="m 977.37673,200.36177 a 17.5815,17.5815 0 0 1 -2.328,6.74781 c 0.49606,0.50953 0.96505,1.0435 1.42127,1.58809 a 17.65508,17.65508 0 0 0 0.90678,-8.3359 z"
         transform="translate(-134.87066,-124)"
         id="path24" />
    </g>
    <path
       d="m 411.35217,387.3696 a 12.9424,12.9424 0 0 0 1.28943,4.64236 5.13438,5.13438 0 0 0 3.76177,2.75411 7.59114,7.59114 0 0 0 4.15009,-1.20318 c 2.52613,-1.31934 5.14805,-2.85275 6.46657,-5.37931 1.27662,-2.44625 1.09294,-5.36533 0.87725,-8.11621 l -1.6964,-21.63629 c -4.08633,-0.11246 -8.19213,-0.11056 -12.275,0.11193 -4.04432,0.2204 -4.75445,1.17279 -4.1915,5.12134 1.12029,7.85806 0.57471,15.84049 1.61779,23.70525 z"
       fill="#fbbebe"
       id="path25" />
    <path
       d="m 531.24457,401.99288 9.72395,15.70981 a 3.84118,3.84118 0 0 0 2.11476,1.98853 3.31892,3.31892 0 0 0 2.03177,-0.3529 c 3.24281,-1.41722 5.725,-4.10854 8.1066,-6.7262 1.616,-1.77618 3.2862,-3.64957 3.89285,-5.973 a 7.61068,7.61068 0 0 0 -1.94278,-7.15966 23.55856,23.55856 0 0 0 -3.66592,-2.62 c -7.68675,-5.18454 -11.15583,-15.03411 -18.74391,-20.362 a 2.95911,2.95911 0 0 0 -1.53688,-0.66116 3.17947,3.17947 0 0 0 -1.57931,0.52962 q -5.18669,2.84309 -10.37337,5.68619 c -4.492,2.45726 -3.06811,2.74575 0.34323,5.39268 5.02508,3.89903 8.16361,9.34999 11.62901,14.54809 z"
       fill="#fbbebe"
       id="path26" />
    <path
       d="m 432.45863,374.85653 c -1.42432,-0.449 -3.02018,-0.85329 -4.36305,-0.19989 a 4.81185,4.81185 0 0 0 -2.27371,3.58541 c -0.27087,1.44365 -0.238,2.94212 -0.63884,4.3552 -0.676,2.38293 -2.49168,4.24466 -4.24173,5.99756 a 6.1849,6.1849 0 0 1 -2.66265,1.85358 c -1.40206,0.359 -2.89333,-0.29764 -4.319,-0.0482 a 4.70184,4.70184 0 0 0 -3.40744,3.4727 13.83493,13.83493 0 0 0 -0.16642,5.09517 l 1.10379,12.059 a 18.27368,18.27368 0 0 1 0.0449,4.431 c -0.40681,2.65091 -1.94754,4.97737 -2.80236,7.51944 -0.85482,2.54207 -0.80721,5.78752 1.33217,7.40489 a 5.358,5.358 0 0 0 5.11862,0.451 11.89768,11.89768 0 0 0 4.23965,-3.21926 c 6.54944,-7.14192 9.4734,-16.81531 14.56733,-25.05875 a 48.79517,48.79517 0 0 0 3.48086,-5.97438 c 0.699,-1.60154 1.14321,-3.30022 1.709,-4.95353 a 49.459,49.459 0 0 1 2.805,-6.43485 c 0.60583,-1.18755 2.92539,-4.04686 2.43818,-5.373 -0.83137,-2.26273 -9.75837,-4.26767 -11.96431,-4.96304 z"
       fill="#2f2e41"
       id="path27" />
    <path
       d="m 550.54985,408.11814 a 12.46585,12.46585 0 0 1 -6.88961,5.90484 6.219,6.219 0 0 0 -2.34176,1.21176 3.62457,3.62457 0 0 0 -0.40971,3.972 12.736,12.736 0 0 0 2.60509,3.3258 42.98877,42.98877 0 0 1 11.1664,22.50185 c 0.34814,2.13082 0.57577,4.39566 1.85093,6.138 2.49086,3.40336 7.79327,3.18074 11.53818,1.24092 a 7.45991,7.45991 0 0 0 2.886,-2.34 9.37985,9.37985 0 0 0 1.16666,-3.55906 49.06406,49.06406 0 0 0 1.11468,-9.44361 c -0.0725,-5.99537 -2.32461,-11.72672 -3.40025,-17.62525 -1.5266,-8.37135 -0.76156,-17.38812 -4.66015,-24.95193 a 5.56633,5.56633 0 0 0 -1.77984,-2.23792 6.24846,6.24846 0 0 0 -3.17044,-0.71145 q -5.28309,-0.21645 -10.57281,-0.0932 c -0.98793,0.023 -2.14312,0.14736 -2.65487,0.99273 -0.52337,0.86458 -0.0659,1.968 0.39392,2.868 2.18189,4.27036 5.71879,7.68409 3.15758,12.80651 z"
       fill="#2f2e41"
       id="path28" />
    <path
       d="m 466.88672,258.07022 a 5.43983,5.43983 0 0 0 -1.27637,6.86792 c 0.78116,1.29395 2.182,2.49846 1.875,3.9784 -0.31866,1.53612 -2.20742,2.0578 -3.75677,2.30424 -13.65535,2.172 -26.94412,6.1697 -40.184,10.156 l -13.8878,4.18141 c -4.00436,1.20565 -8.07855,2.44393 -11.53859,4.79268 a 20.76846,20.76846 0 0 0 -7.25826,8.67076 c -1.58761,3.56 -2.13341,7.48112 -2.70023,11.33769 -2.0858,14.19162 -4.74883,28.52365 -11.08114,41.39434 l 33.68292,11.04458 a 49.48452,49.48452 0 0 0 10.09225,2.53987 37.61163,37.61163 0 0 0 9.8298,-0.47571 c -0.20917,-7.52125 -0.33643,-15.269 -0.5456,-22.79021 a 63.97657,63.97657 0 0 0 -0.46215,-7.10662 c -0.50507,-3.6042 -1.62347,-7.11057 -1.972,-10.73327 1.55385,-1.28167 3.8125,-0.96295 5.82589,-0.90429 4.59491,0.13387 9.08086,-1.46335 13.16723,-3.56876 4.08637,-2.10541 7.88636,-4.72939 11.95,-6.87832 6.7707,-3.58046 14.47067,-5.98877 19.639,-11.64125 -2.63256,10.03367 -8.852,18.77686 -10.05514,29.08013 -1.21555,10.4098 3.02129,20.5973 7.16865,30.22232 l 13.25116,30.75281 c 1.463,3.39533 3.41148,7.21212 7.0188,8.022 2.24755,0.50459 4.56627,-0.3388 6.65231,-1.3158 12.19618,-5.71208 21.95349,-16.45045 34.97585,-19.88452 -0.97043,-6.44861 -6.06588,-11.77962 -8.95163,-17.62759 -2.43381,-4.93209 -3.22857,-10.48612 -4.85024,-15.74151 -1.62167,-5.25539 -4.40818,-10.58105 -9.30806,-13.07906 -2.32662,-1.18613 -5.46094,-2.21828 -5.67815,-4.82076 a 5.45341,5.45341 0 0 1 0.51783,-2.42035 31.55767,31.55767 0 0 1 7.92611,-11.53817 3.50507,3.50507 0 0 0 1.042,-1.30385 3.9321,3.9321 0 0 0 0.0774,-1.55209 c -0.24577,-4.18721 1.99616,-8.1042 4.49755,-11.47114 2.50139,-3.36694 5.39133,-6.57162 6.80146,-10.5219 2.42462,-6.79217 0.0182,-14.25643 -2.37883,-21.0584 -0.9688,-2.74915 -1.988,-5.58336 -3.97827,-7.713 -3.12078,-3.33942 -7.98148,-4.30191 -12.52493,-4.8 -14.69036,-1.61047 -31.92975,-5.46136 -43.60306,3.60142 z"
       fill="#2f2e41"
       id="path29" />
    <g
       opacity="0.1"
       id="g30"
       transform="translate(-314.48477,-4.7649208)">
      <path
         d="m 914.71251,388.86624 a 2.81894,2.81894 0 0 0 2.12828,-1.921 2.05365,2.05365 0 0 0 0.0342,-0.573 c -0.21137,0.15329 -0.42495,0.30153 -0.63281,0.46292 a 5.04241,5.04241 0 0 0 -1.52968,2.03108 z"
         transform="translate(-134.87066,-124)"
         id="path30" />
    </g>
    <path
       d="m 490.10063,151.62036 c 0.17528,3.35518 -0.8378,6.946 -3.41718,9.09883 -0.82751,0.69067 -1.78791,1.214 -2.584,1.94064 a 6.983,6.983 0 0 0 1.0213,10.60751 c 2.6783,1.63421 6.08376,1.19328 9.1751,0.657 a 53.6008,53.6008 0 0 0 12.04268,-3.14239 19.98676,19.98676 0 0 0 9.49182,-7.77438 c -3.366,-1.87668 -5.199,-5.81866 -5.40339,-9.667 -0.20462,-3.85352 0.85181,-8.22637 -1.58853,-11.21572 -2.35011,-2.87881 -6.77273,-2.85778 -10.3552,-1.86958 -1.79806,0.496 -3.53906,1.182 -5.33968,1.66734 -0.91241,0.24594 -3.92633,0.25243 -4.5225,0.92432 -1.08403,1.22169 1.37817,6.83215 1.47958,8.77343 z"
       fill="#fbbebe"
       id="path31" />
    <path
       d="m 490.10063,151.62036 c 0.17528,3.35518 -0.8378,6.946 -3.41718,9.09883 -0.82751,0.69067 -1.78791,1.214 -2.584,1.94064 a 6.983,6.983 0 0 0 1.0213,10.60751 c 2.6783,1.63421 6.08376,1.19328 9.1751,0.657 a 53.6008,53.6008 0 0 0 12.04268,-3.14239 19.98676,19.98676 0 0 0 9.49182,-7.77438 c -3.366,-1.87668 -5.199,-5.81866 -5.40339,-9.667 -0.20462,-3.85352 0.85181,-8.22637 -1.58853,-11.21572 -2.35011,-2.87881 -6.77273,-2.85778 -10.3552,-1.86958 -1.79806,0.496 -3.53906,1.182 -5.33968,1.66734 -0.91241,0.24594 -3.92633,0.25243 -4.5225,0.92432 -1.08403,1.22169 1.37817,6.83215 1.47958,8.77343 z"
       opacity="0.1"
       id="path32" />
    <circle
       cx="500.42709"
       cy="131.47507"
       r="19.938669"
       fill="#fbbebe"
       id="circle32" />
    <path
       d="m 437.46637,284.44798 a 13.61718,13.61718 0 0 1 -1.87717,4.42689 20.743,20.743 0 0 0 -2.37994,13.60708 14.36,14.36 0 0 0 8.38119,10.59433 c 1.86648,0.7348 4.17868,0.92871 5.71776,-0.35773 -2.66376,-3.46526 -2.805,-8.196 -2.64555,-12.56387 a 4.16645,4.16645 0 0 1 0.55909,-2.33222 1.465,1.465 0 0 1 2.10554,-0.37388 18.96508,18.96508 0 0 0 1.55746,8.00637 c 0.42167,0.97095 1.14243,2.04315 2.20063,2.01555 1.51824,-0.0396 1.92833,-2.09584 1.87073,-3.6135 -0.23471,-6.18391 -0.53755,-12.62474 -3.51873,-18.04769 -1.09127,-1.98509 -2.54566,-3.84916 -2.96057,-6.0761 a 3.60673,3.60673 0 0 0 -0.76216,-2.12659 2.71886,2.71886 0 0 0 -1.12172,-0.52259 c -1.71649,-0.485 -5.77921,-1.9953 -7.19589,-0.38724 -1.51875,1.72392 0.34418,5.69006 0.0693,7.75119 z"
       fill="#fbbebe"
       id="path33" />
    <path
       d="m 467.07774,178.50994 c -2.28671,-0.25724 -4.09194,1.8356 -5.34485,3.76574 a 72.847,72.847 0 0 0 -9.92327,23.5275 c -0.966,4.26984 -1.57269,8.70471 -3.59967,12.58494 a 12.19614,12.19614 0 0 0 -1.17172,2.5607 25.27141,25.27141 0 0 0 -0.18255,4.12666 c -0.21139,2.49147 -1.683,4.70453 -2.17735,7.1556 -0.29462,1.46073 -0.23505,2.97307 -0.49708,4.44 -0.459,2.5693 -1.87083,4.85445 -2.774,7.30317 -1.59017,4.31135 -1.57608,9.04493 -2.74616,13.48872 a 4.66125,4.66125 0 0 1 -0.92395,2.00452 c -0.79335,0.87127 -2.06143,1.08417 -3.0991,1.64252 a 6.715,6.715 0 0 0 -3.11313,4.59562 19.89489,19.89489 0 0 0 -0.10611,5.70725 l 0.91669,11.79408 c 0.94457,-0.39621 1.56143,-1.46536 2.34905,-2.12021 1.44157,-1.19858 3.55868,-0.92978 5.40338,-0.59539 l 2.68729,0.48713 c 2.74871,0.49825 5.73805,1.1332 7.50137,3.29984 1.40093,-2.191 0.6,-5.42047 2.75352,-6.87832 0.70049,-0.4742 1.56781,-0.63458 2.30645,-1.04686 a 5.1463,5.1463 0 0 0 2.34664,-4.13827 15.20022,15.20022 0 0 0 -0.67507,-4.88505 c 3.452,-1.45755 5.59271,-4.95239 6.94328,-8.4476 a 69.83731,69.83731 0 0 0 3.21047,-13.0302 c 3.118,-17.52708 5.9685,-35.17969 6.25146,-52.9797 a 25.43492,25.43492 0 0 0 -0.97072,-8.8301 c -0.98283,-2.81033 -2.4063,-5.19946 -5.36487,-5.53229 z"
       fill="#d0cde1"
       id="path34" />
    <path
       d="m 517.34533,159.42178 a 25.10779,25.10779 0 0 1 -12.12691,7.04322 74.89114,74.89114 0 0 1 -14.04266,2.06867 8.737,8.737 0 0 1 -4.343,-0.37507 c -1.33885,-0.60664 -2.35634,-2.192 -1.81148,-3.55714 a 3.79384,3.79384 0 0 0 0.52409,-1.3833 c -0.0232,-1.21453 -1.8104,-1.31512 -2.97092,-0.95619 -7.67552,2.3739 -15.03643,7.075 -18.57876,14.28616 -2.001,4.07346 -2.66139,8.65412 -3.29579,13.148 -1.66857,11.81952 -3.33295,23.89629 -1.09628,35.62158 1.19267,6.25238 3.487,12.34691 3.63012,18.71042 0.0802,3.56586 -0.52135,7.11814 -0.49327,10.68479 a 5.36976,5.36976 0 0 0 0.945,3.52509 c 0.55219,0.64131 1.385,1.04588 1.77011,1.79949 0.644,1.26025 -0.21679,2.99045 0.631,4.12365 1.04413,1.3956 3.2246,0.39352 4.663,-0.59085 a 37.10749,37.10749 0 0 1 24.67231,-6.21118 c 10.45016,1.12146 20.834,6.691 30.96885,3.90753 a 14.92871,14.92871 0 0 1 -1.3451,-2.41226 c -5.0538,-16.60635 -4.71157,-35.16877 2.85171,-50.79273 2.58384,-5.3376 6.01275,-10.42456 7.00253,-16.27148 a 30.98034,30.98034 0 0 0 0.0935,-8.254 c -0.53256,-5.308 -1.79659,-10.65993 -4.68132,-15.14736 -2.88473,-4.48743 -7.65805,-8.44155 -12.96677,-8.96704 z"
       fill="#d0cde1"
       id="path35" />
    <path
       d="m 469.10723,289.57952 a 18.16093,18.16093 0 0 0 -1.14811,6.78661 39.715,39.715 0 0 0 0.33,6.62638 10.55278,10.55278 0 0 0 1.93691,5.20484 4.7637,4.7637 0 0 0 4.97786,1.76957 5.22174,5.22174 0 0 0 3.00294,-3.33908 30.51913,30.51913 0 0 0 0.94237,-4.54668 c 0.87422,-4.52578 3.25062,-8.7736 3.292,-13.38286 a 3.7638,3.7638 0 0 0 -0.2536,-1.60379 c -0.86438,-1.89464 -5.09934,-4.02066 -7.16862,-3.70171 -2.5886,0.399 -4.97241,3.9986 -5.91175,6.18672 z"
       fill="#fbbebe"
       id="path36" />
    <path
       d="m 526.64634,176.2552 c -0.39451,3.96432 3.44061,6.9523 4.95665,10.63646 a 17.90587,17.90587 0 0 1 1.04628,5.35142 c 1.06527,12.67583 0.23789,25.4258 -0.58983,38.11935 a 71.78078,71.78078 0 0 1 -1.56631,12.56373 c -2.14025,8.67422 -7.40513,16.19349 -12.56459,23.48751 a 15.117,15.117 0 0 1 -7.69321,6.34494 l -17.70353,8.57605 a 34.2699,34.2699 0 0 0 -6.2885,3.61622 17.20149,17.20149 0 0 0 -5.20552,6.77757 c -3.43459,-1.75511 -7.00092,-3.33081 -10.4355,-5.08592 -0.80388,-0.41079 -1.70281,-0.94689 -1.84156,-1.83891 -0.18618,-1.19685 1.06465,-2.04207 1.92563,-2.894 1.61072,-1.59387 2.10752,-3.95594 2.97965,-6.0474 2.84916,-6.83256 10.015,-11.20587 12.59977,-18.14276 0.99336,-2.66592 1.297,-5.67861 3.05839,-7.91277 a 19.622,19.622 0 0 1 3.37776,-2.9809 57.45985,57.45985 0 0 0 7.48821,-7.66586 12.99729,12.99729 0 0 0 2.44909,-3.58615 c 0.77373,-1.96871 0.54209,-4.16387 0.58235,-6.27879 0.1318,-6.92378 3.26229,-13.381 5.17892,-20.03552 1.805,-6.26678 2.55811,-12.84057 4.92582,-18.91712 2.36771,-6.07655 7.00643,-12.45345 13.32003,-14.08715 z"
       opacity="0.1"
       id="path37" />
    <path
       d="m 528.94695,176.2552 c -0.3945,3.96432 3.44061,6.9523 4.95666,10.63646 a 17.90586,17.90586 0 0 1 1.04627,5.35142 c 1.06528,12.67583 0.23789,25.4258 -0.58982,38.11935 a 71.78079,71.78079 0 0 1 -1.56632,12.56373 c -2.14025,8.67422 -7.40512,16.19349 -12.56459,23.48751 a 15.11706,15.11706 0 0 1 -7.6932,6.34494 l -17.70354,8.57605 a 34.27015,34.27015 0 0 0 -6.28849,3.61622 17.20161,17.20161 0 0 0 -5.20553,6.77757 c -3.43459,-1.75511 -7.00091,-3.33081 -10.4355,-5.08592 -0.80387,-0.41079 -1.7028,-0.94689 -1.84156,-1.83891 -0.18617,-1.19685 1.06466,-2.04207 1.92563,-2.894 1.61073,-1.59387 2.10752,-3.95594 2.97966,-6.0474 2.84916,-6.83256 10.015,-11.20587 12.59976,-18.14276 0.99336,-2.66592 1.297,-5.67861 3.05839,-7.91277 a 19.62274,19.62274 0 0 1 3.37776,-2.9809 57.45931,57.45931 0 0 0 7.48822,-7.66586 12.99773,12.99773 0 0 0 2.44909,-3.58615 c 0.77373,-1.96871 0.54209,-4.16387 0.58235,-6.27879 0.13179,-6.92378 3.26229,-13.381 5.17891,-20.03552 1.805,-6.26678 2.55811,-12.84057 4.92582,-18.91712 2.36771,-6.07655 7.00644,-12.45345 13.32003,-14.08715 z"
       fill="#d0cde1"
       id="path38" />
    <path
       d="m 510.31491,100.65153 a 28.24459,28.24459 0 0 0 -17.70363,3.66516 c 0.78676,0.0294 1.57736,0.0831 2.373,0.17927 a 28.37213,28.37213 0 0 1 10.89671,52.67367 28.37069,28.37069 0 0 0 4.4339,-56.5181 z"
       fill="#2f2e41"
       id="path39" />
    <path
       d="m 519.04334,116.42519 a 12.96867,12.96867 0 0 1 0.22427,9.938 12.6485,12.6485 0 0 0 -0.46523,-1.20992 c -3.50723,-7.80385 -14.3112,-11.03408 -24.13135,-7.21491 -5.7851,2.2499 -9.93565,6.44481 -11.65487,11.10735 -2.50049,-7.54389 2.57789,-16.21158 11.89584,-19.83543 9.82014,-3.8192 20.62412,-0.58894 24.13134,7.21491 z"
       fill="#2f2e41"
       id="path40" />
    <g
       opacity="0.1"
       id="g44"
       transform="translate(-314.48477,-4.7649208)">
      <path
         d="m 968.4537,254.50905 a 28.40506,28.40506 0 0 0 -18.96113,-24.4784 28.35092,28.35092 0 0 0 -7.52586,3.051 c 0.78676,0.0294 1.57736,0.0831 2.373,0.17927 a 28.37877,28.37877 0 0 1 24.11399,21.24813 z"
         transform="translate(-134.87066,-124)"
         id="path41" />
      <path
         d="m 973.05493,233.8035 a 28.40505,28.40505 0 0 0 -18.96113,-24.4784 28.35128,28.35128 0 0 0 -7.52586,3.051 c 0.78676,0.0294 1.57736,0.0831 2.373,0.17926 a 28.37877,28.37877 0 0 1 24.11399,21.24814 z"
         transform="translate(-134.87066,-124)"
         id="path42" />
      <path
         d="m 973.17213,202.87715 a 17.14276,17.14276 0 0 0 -11.44324,-14.773 17.11069,17.11069 0 0 0 -4.54195,1.84129 c 0.47482,0.0178 0.952,0.0502 1.43215,0.10819 a 17.1269,17.1269 0 0 1 14.55304,12.82352 z"
         transform="translate(-134.87066,-124)"
         id="path43" />
      <path
         d="m 983.7843,250.66462 a 28.39508,28.39508 0 0 1 -21.98035,29.977 28.54951,28.54951 0 0 1 -6.56751,5.29288 28.36866,28.36866 0 0 0 28.54786,-35.26993 z"
         transform="translate(-134.87066,-124)"
         id="path44" />
    </g>
    <line
       x1="446.17105"
       y1="303.70386"
       x2="442.50198"
       y2="192.77594"
       fill="none"
       stroke="#6c63ff"
       stroke-miterlimit="10"
       stroke-width="2"
       id="line44" />
    <circle
       cx="442.50198"
       cy="192.77594"
       r="15.69535"
       fill="#64ffda"
       id="circle44" />
    <path
       d="m 444.7633,261.14308 c 0,0 -3.83519,-48.12433 -49.58972,-41.0024"
       fill="#64ffda"
       id="path45" />
  </g>
</svg>
